<svg xmlns="http://www.w3.org/2000/svg" version="1.0" width="10" height="10"><g
    transform="translate(-4.555 -3.769) scale(.15445)"
  ><path
      fill="#ffd42a"
      stroke="#000"
      stroke-width="3.11090571"
      d="M31.952 79.01c-.416.801-.907 1.551-.907 2.431l.004.368c0 1.9 1.487 3.049 3.197 3.049h55.25c1.71 0 3.183-1.424 3.183-3.324l-.018-.37c0-.88-.433-1.644-.907-2.432L64.392 29.648c-1.21-1.343-3.17-1.343-4.378 0z"
    /><circle
      cx="23.921"
      cy="74.475"
      r="8.042"
      overflow="visible"
      style="marker:none"
      transform="matrix(.54212 0 0 .54212 49.546 33.731)"
    /><path
      d="M62.486 43.817c1.713 0 4.37 1.365 4.37 3.06l-1.278 17.615c0 1.695-1.38 3.06-3.092 3.06-1.713 0-3.091-1.365-3.091-3.06l-1.493-17.615c0-1.695 2.871-3.06 4.584-3.06z"
      overflow="visible"
      style="marker:none"
    /></g></svg>
